<?xml version="1.0" encoding="UTF-8" standalone="no"?>
<svg
		xmlns:dc="http://purl.org/dc/elements/1.1/"
		xmlns:cc="http://creativecommons.org/ns#"
		xmlns:rdf="http://www.w3.org/1999/02/22-rdf-syntax-ns#"
		xmlns="http://www.w3.org/2000/svg"
		xmlns:sodipodi="http://sodipodi.sourceforge.net/DTD/sodipodi-0.dtd"
		xmlns:inkscape="http://www.inkscape.org/namespaces/inkscape"
		inkscape:export-ydpi="96"
		inkscape:export-xdpi="96"
		inkscape:export-filename="D:\Development\Games\KTX\V2\graphics-sources\engineering-cog.png"
		sodipodi:docname="engineering-cog.svg"
		inkscape:version="1.0 (4035a4fb49, 2020-05-01)"
		id="svg8"
		version="1.1"
		viewBox="0 0 24 24"
		height="24mm"
		width="24mm">
  <defs
     id="defs2" />
  <sodipodi:namedview
     inkscape:window-maximized="0"
     inkscape:window-y="28"
     inkscape:window-x="146"
     inkscape:window-height="1009"
     inkscape:window-width="1274"
     showgrid="false"
     inkscape:document-rotation="0"
     inkscape:current-layer="layer1"
     inkscape:document-units="px"
     inkscape:cy="49.394583"
     inkscape:cx="37.366857"
     inkscape:zoom="5.6"
     inkscape:pageshadow="2"
     inkscape:pageopacity="0.0"
     borderopacity="1.0"
     bordercolor="#666666"
     pagecolor="#ffffff"
     id="base" />
  <metadata
     id="metadata5">
    <rdf:RDF>
      <cc:Work
         rdf:about="">
        <dc:format>image/svg+xml</dc:format>
        <dc:type
           rdf:resource="http://purl.org/dc/dcmitype/StillImage" />
        <dc:title></dc:title>
      </cc:Work>
    </rdf:RDF>
  </metadata>
  <g
     id="layer1"
     inkscape:groupmode="layer"
     inkscape:label="Layer 1">
    <path
       transform="matrix(0.88988786,0,0,0.86967018,0.72856981,0.56399474)"
       inkscape:transform-center-y="-0.96201744"
       inkscape:transform-center-x="0.0043940027"
       d="M 19.04055,21.686385 C 16.532599,23.513787 16.113077,19.82181 13.027427,20.150411 9.9417757,20.479012 10.309186,24.176538 7.4726333,22.918289 4.6360811,21.66004 7.6236661,19.450736 5.7962643,16.942784 3.9688623,14.434833 0.95041558,16.601782 0.62181481,13.516131 0.29321406,10.430481 3.7003206,11.913153 4.9585694,9.0766007 6.2168182,6.2400484 2.8309615,4.7094716 5.3389131,2.8820695 c 2.5079514,-1.8274019 2.927473,1.864575 6.0131239,1.5359743 3.08565,-0.3286006 2.71824,-4.026127 5.554793,-2.7678782 2.836552,1.2582487 -0.151033,3.4675534 1.676369,5.9755049 1.827402,2.5079515 4.845849,0.3410021 5.174449,3.4266525 0.328601,3.085651 -3.078505,1.602979 -4.336754,4.439531 -1.258249,2.836552 2.127608,4.367129 -0.380344,6.194531 z"
       inkscape:randomized="0"
       inkscape:rounded="0.5"
       inkscape:flatsided="false"
       sodipodi:arg2="1.464703"
       sodipodi:arg1="0.94110425"
       sodipodi:r2="7.9106622"
       sodipodi:r1="11.633327"
       sodipodi:cy="12.284227"
       sodipodi:cx="12.189732"
       sodipodi:sides="6"
       id="path18"
       style="fill:#d45500;stroke-width:0.264583"
       sodipodi:type="star" />
    <ellipse
       ry="3.2127976"
       rx="3.3072915"
       cy="11.197545"
       cx="11.670014"
       id="path22"
       style="fill:#ffffff;stroke-width:0.264583" />
  </g>
</svg>
