<?xml version="1.0" encoding="UTF-8" standalone="no"?>
<svg
		xmlns:dc="http://purl.org/dc/elements/1.1/"
		xmlns:cc="http://creativecommons.org/ns#"
		xmlns:rdf="http://www.w3.org/1999/02/22-rdf-syntax-ns#"
		xmlns="http://www.w3.org/2000/svg"
		xmlns:sodipodi="http://sodipodi.sourceforge.net/DTD/sodipodi-0.dtd"
		xmlns:inkscape="http://www.inkscape.org/namespaces/inkscape"
		inkscape:export-ydpi="8.4889565"
		inkscape:export-xdpi="8.4889565"
		inkscape:export-filename="D:\Development\Games\KTX\Herschel\raw\ui\science-icons\icon_biology_dna.png"
		inkscape:version="1.0 (4035a4fb49, 2020-05-01)"
		sodipodi:docname="dna.svg"
		id="svg30"
		version="1.1"
		style="height: 512px; width: 512px;"
		viewBox="0 0 512 512">
  <metadata
     id="metadata36">
    <rdf:RDF>
      <cc:Work
         rdf:about="">
        <dc:format>image/svg+xml</dc:format>
        <dc:type
           rdf:resource="http://purl.org/dc/dcmitype/StillImage" />
        <dc:title></dc:title>
      </cc:Work>
    </rdf:RDF>
  </metadata>
  <defs
     id="defs34" />
  <sodipodi:namedview
     inkscape:guide-bbox="true"
     showborder="false"
     inkscape:snap-page="false"
     showguides="true"
     inkscape:current-layer="svg30"
     inkscape:window-maximized="1"
     inkscape:window-y="-8"
     inkscape:window-x="55"
     inkscape:cy="388.98485"
     inkscape:cx="92.973252"
     inkscape:zoom="0.5"
     inkscape:pagecheckerboard="true"
     showgrid="false"
     id="namedview32"
     inkscape:window-height="1057"
     inkscape:window-width="1857"
     inkscape:pageshadow="2"
     inkscape:pageopacity="0"
     guidetolerance="10"
     gridtolerance="10"
     objecttolerance="10"
     borderopacity="1"
     bordercolor="#666666"
     pagecolor="#ffffff">
    <sodipodi:guide
       id="guide907"
       orientation="0,-1"
       position="155,20" />
  </sodipodi:namedview>
  <g
     inkscape:export-ydpi="6.4677763"
     inkscape:export-xdpi="6.4677763"
     id="g28"
     style="fill:#ffffff;fill-opacity:1"
     transform="translate(-527,-1.189)"
     class="">
    <path
       style="fill:#ffffff;fill-opacity:1"
       id="path26"
       fill-opacity="1"
       fill="#fff"
       d="m 121.844,18.22 c -10.248,46.5 -5.753,86.598 7.562,121 31.722,35.503 74.78,60.367 119.5,84.405 -15.144,-14.727 -29.5,-29.294 -41.97,-44.188 h 72.94 c 5.318,-6.197 10.267,-12.425 14.812,-18.687 H 192.5 c -4.946,-7.035 -9.397,-14.18 -13.25,-21.5 -2.036,-3.867 -3.926,-7.78 -5.656,-11.75 h 140.594 c 2.73,-6.087 5.032,-12.27 6.875,-18.688 h -154.22 c -3.453,-12.16 -5.326,-25.127 -5.218,-39.437 h 164.25 c -0.176,-5.948 -0.708,-12.168 -1.656,-18.72 H 162.843 c 1.202,-10.093 3.29,-20.866 6.437,-32.436 h -47.436 z m 216.03,0 c 10.033,36.836 9.616,65.44 2.47,90.593 h -0.156 c -3.215,13.34 -8.158,25.723 -14.375,37.53 -15.708,29.833 -40.195,56.197 -67.094,82.532 12.75,6.806 25.567,13.607 38.25,20.625 26.73,-26.167 52.8,-54.185 71.03,-88.813 20.463,-38.87 29.83,-85.945 17.375,-142.468 h -47.5 z m -129,253.81 c -20.338,21.212 -39.452,44.344 -53.936,71.69 -21.326,40.26 -31.11,89.958 -19.438,149.467 h 45.625 c -5.036,-22.15 -6.48,-42.845 -5.03,-62 0.458,-7.468 1.38,-14.606 2.75,-21.468 H 179 c 1.278,-6.435 2.896,-12.663 4.813,-18.69 0.024,-0.07 0.038,-0.145 0.062,-0.217 3.025,-9.47 6.796,-18.44 11.188,-26.875 14.96,-28.73 35.86,-51.34 56.5,-71.813 -14.107,-6.74 -28.446,-13.326 -42.688,-20.094 z m 47.595,22.47 c 14.437,14.55 27.88,29.196 39.186,44.563 h -61.812 c -4.798,5.982 -9.337,12.195 -13.53,18.687 h 87.75 c 1.445,2.45 2.832,4.94 4.155,7.438 4.388,8.287 8.147,16.85 11.155,25.843 H 203.5 c -2.184,5.98 -4.007,12.218 -5.47,18.69 h 130.314 c 2.428,12.173 3.525,25.21 2.937,39.436 H 194.19 c 0.137,6.05 0.58,12.28 1.375,18.688 h 134.062 c -1.072,8.062 -2.65,16.496 -4.75,25.344 h 46.813 c 9.533,-48.618 4.736,-90.682 -8.97,-126.407 -28.443,-31.848 -66.276,-52.97 -106.25,-72.28 z" />
  </g>
  <g
     inkscape:export-ydpi="8.4889565"
     inkscape:export-xdpi="8.4889565"
     transform="translate(-123.191,-5.78)"
     class=""
     id="g879">
    <path
       d="m 234.875,18.78 c -26.087,2.367 -51.557,8.56 -74.875,18.782 15.37,32.763 14.222,66.706 -6.72,82.407 -20.835,15.617 -54.055,7.965 -81.124,-15.69 -16.246,19.452 -29.336,41.36 -38.875,65.626 33.83,12.333 56.635,37.665 52.94,63.5 -3.698,25.835 -32.697,43.74 -68.626,46.094 2.338,25.796 8.91,50.778 18.937,73.875 17.81,-8.182 35.793,-11.09 51.095,-8.938 13.032,1.87 23.927,7.015 31.156,16.657 15.817,21.097 7.603,54.713 -16.78,81.97 19.516,16.35 42.216,29.444 66.594,39.03 12.33,-33.828 37.655,-56.634 63.5,-52.938 25.844,3.697 43.74,32.696 46.094,68.625 26.087,-2.365 51.557,-8.555 74.875,-18.78 -15.766,-32.997 -14.26,-67.588 6.843,-83.406 9.64,-7.23 22.568,-9.022 35.594,-7.125 15.112,2.16 31.19,10.25 45.563,22.78 16.088,-19.345 29.4,-41.51 38.875,-65.594 -33.83,-12.332 -56.635,-37.653 -52.938,-63.5 3.697,-25.846 32.665,-43.772 68.594,-46.125 -2.36,-25.944 -8.774,-50.663 -18.906,-73.874 -32.612,15.117 -66.66,13.145 -82.282,-7.687 -15.696,-20.944 -7.252,-53.86 16.688,-81 C 391.577,57.117 368.849,44.022 344.472,34.437 332.14,68.265 306.815,91.097 280.972,87.405 255.126,83.712 237.228,54.709 234.877,18.78 Z m 21.656,95.126 c 79.626,0 144.376,64.752 144.376,144.375 0,79.626 -64.75,144.376 -144.375,144.376 -79.624,0 -144.374,-64.75 -144.374,-144.375 0,-79.624 64.75,-144.374 144.375,-144.374 z m 0,18.688 c -69.524,0 -125.686,56.162 -125.686,125.687 0,69.526 56.162,125.69 125.687,125.69 69.526,0 125.69,-56.164 125.69,-125.69 0,-69.522 -56.164,-125.686 -125.69,-125.686 z m 0.033,15.125 c 61.094,0 110.625,49.53 110.625,110.624 0,61.095 -49.53,110.625 -110.625,110.625 -61.095,0 -110.625,-49.53 -110.625,-110.626 0,-61.095 49.53,-110.625 110.625,-110.625 z"
       fill="#ffffff"
       fill-opacity="1"
       id="path877" />
  </g>
  <g
     inkscape:export-ydpi="8.4889565"
     inkscape:export-xdpi="8.4889565"
     transform="translate(440.55232,10.78078)"
     class=""
     id="g927">
    <path
       d="m 241.063,54.406 c -2.31,0.008 -4.61,0.032 -6.907,0.094 -1.805,0.05 -3.61,0.106 -5.406,0.188 -8.814,1.567 -12.884,5.426 -15.094,9.843 -2.435,4.87 -2.34,11.423 0.375,17.25 2.717,5.83 7.7,10.596 14.657,12.376 6.958,1.78 16.536,0.86 29.125,-7.187 l 10.063,15.75 c -15.818,10.11 -31.124,12.777 -43.813,9.53 -12.688,-3.247 -22.103,-12.123 -26.968,-22.563 -4.584,-9.836 -5.426,-21.376 -1.03,-31.624 -42.917,6.94 -81.777,23.398 -111.626,46.562 -9.81,10.688 -10.77,23.11 -6.47,31.594 4.83,9.526 16.21,16.48 38.97,9.28 l 5.656,17.813 c -28.58,9.04 -52.137,-0.588 -61.28,-18.625 -2.23,-4.397 -3.592,-9.156 -4.127,-14.063 -4.814,5.712 -9.16,11.658 -13,17.844 l 0.126,0.06 c -8.614,19.616 -8.81,33.203 -5.376,42.032 3.436,8.83 10.635,14.44 21.72,17.532 22.168,6.18 58.065,-1.277 83.343,-20.156 10.82,-8.08 21.077,-27.677 21.97,-42.875 0.445,-7.6 -1.165,-13.604 -4.345,-17.438 -3.18,-3.834 -8.272,-6.703 -18.813,-6.594 l -0.187,-18.686 c 14.487,-0.15 26.25,4.754 33.375,13.344 7.124,8.59 9.26,19.652 8.625,30.468 -1.27,21.633 -12.595,44.172 -29.438,56.75 -29.876,22.314 -69.336,31.606 -99.53,23.188 -13.988,-3.9 -26.37,-12.386 -32.75,-25.53 -9.546,45.446 4.323,87.66 30.718,116.874 3.45,3.82 7.122,7.43 10.97,10.78 -2.754,-7.887 -4.016,-16.1 -3.72,-24.093 0.53,-14.325 6.082,-28.346 17.22,-38.03 9.134,-7.946 21.752,-12.53 36.843,-12.5 1.006,0 2.034,0.018 3.062,0.06 2.35,0.1 4.763,0.304 7.22,0.626 l -2.44,18.532 c -15.588,-2.048 -25.705,1.522 -32.436,7.375 -6.73,5.854 -10.443,14.614 -10.813,24.625 -0.74,20.024 12.07,43.406 39.69,50.188 l -0.032,0.188 c 27.192,5.19 57.536,0.372 88,-18.22 0.018,-0.012 0.043,-0.017 0.062,-0.03 6.34,-4.45 9.755,-8.808 11.438,-12.563 1.985,-4.432 1.943,-8.292 0.53,-12.438 -2.824,-8.29 -12.94,-16.812 -22.218,-19.187 -15.002,-3.84 -24.532,1.436 -29,7.72 -4.468,6.28 -4.74,12.45 2.156,17.81 l -11.47,14.75 c -14.187,-11.033 -15.092,-30.487 -5.905,-43.405 6.892,-9.688 18.985,-16.326 33.564,-16.75 0.607,-0.018 1.228,-0.036 1.844,-0.03 4.306,0.03 8.79,0.622 13.437,1.81 15.505,3.97 29.84,15.277 35.28,31.25 1.416,4.155 2.09,8.69 1.876,13.314 16.71,-8.538 34.332,-16.12 52.282,-21.814 30.156,-13.78 43.23,-37.938 42.72,-58.28 -0.515,-20.493 -13.187,-37.74 -42.376,-40.626 l 1.844,-18.594 c 36.666,3.626 58.462,29.848 59.188,58.75 0.422,16.84 -5.754,34.363 -18.188,49.28 16.072,-1.8 32.044,-1.495 47.53,1.627 -3.152,-6.472 -4.68,-13.478 -4.467,-20.438 0.677,-22.036 19.42,-42.593 48.875,-42.906 1.963,-0.022 3.974,0.053 6.03,0.218 l -1.5,18.625 c -24.927,-1.998 -34.3,11.086 -34.718,24.656 -0.412,13.42 8.545,28.442 34.22,30.436 28.3,0.25 48.588,-15.098 58.53,-37.906 13.31,-30.536 6.997,-76.317 -34.844,-118.188 -0.792,-0.793 -1.578,-1.593 -2.375,-2.375 -0.444,3.792 -1.424,7.443 -2.842,10.844 -7.25,17.39 -24.233,29.128 -41.875,32.407 -24.335,4.522 -44.29,-5.347 -53.5,-20.406 -9.21,-15.057 -6.792,-36.35 9.78,-47.56 l 10.47,15.5 c -8.913,6.028 -9.28,14.19 -4.313,22.31 4.967,8.122 16.17,15.156 34.156,11.814 11.306,-2.102 23.896,-11.33 28.03,-21.25 2.07,-4.96 2.47,-9.862 0.408,-15.47 -1.675,-4.555 -5.187,-9.764 -11.72,-15.25 l -0.187,-0.155 c -27.316,-20.587 -56.338,-35.393 -85.75,-45.157 0.018,0.032 0.045,0.06 0.063,0.093 6.684,12.22 7.18,26.082 3.063,38.344 -8.233,24.525 -34.07,43.848 -66.032,42.78 -6.948,-0.23 -13.56,3.12 -19.186,9.657 -5.627,6.537 -9.735,16.113 -10.688,26.313 -1.905,20.4 6.923,42.886 41.344,54 L 277,258.28 c -41.083,-13.264 -56.83,-45.546 -54.22,-73.5 1.307,-13.975 6.706,-26.962 15.157,-36.78 8.452,-9.818 20.475,-16.603 33.97,-16.156 24.04,0.802 42.323,-14.084 47.687,-30.063 2.682,-7.988 2.335,-15.937 -1.75,-23.405 -3.968,-7.252 -11.83,-14.423 -25.906,-19.656 -17.114,-2.967 -34.16,-4.367 -50.875,-4.314 z M 342.28,306.344 c -41.915,3.41 -87.366,23.4 -125.28,46.562 -55.98,34.198 -114.89,26.733 -156.688,-4.28 16.444,58.844 74.712,70.788 135.5,55.905 6.083,-2.285 12.06,-6.538 17.157,-12.03 7.057,-7.607 12.17,-17.47 13.78,-25.625 l 18.344,3.625 c -2.445,12.383 -9.078,24.666 -18.406,34.72 -8.95,9.645 -20.61,17.35 -34.094,19.374 -6.766,15.07 -12.334,29.68 -14.594,39.906 -3.55,16.06 14.206,22.225 22.156,6.03 19.022,-38.743 45.87,-73.23 79.406,-102.967 26.064,-17.153 48.406,-38.303 62.72,-61.22 z"
       fill="#ffffff"
       fill-opacity="1"
       id="path925" />
  </g>
  <g
     inkscape:export-ydpi="8.4889565"
     inkscape:export-xdpi="8.4889565"
     transform="translate(-1034,6.442)"
     class=""
     id="g973">
    <path
       d="M 387.176,255.949 C 438.519,212.903 471.063,168.437 455.198,141.01 439.333,113.583 384.53,119.524 321.543,142.493 309.94,76.458 287.733,26 256.043,26 c -31.69,0 -53.917,50.448 -65.53,116.338 a 403.375,403.375 0 0 0 -44.827,-13.61 c -47.09,-11.109 -77.812,-6.867 -88.85,12.241 -15.916,27.54 16.68,71.986 68.064,115.052 -51.385,43.065 -83.98,87.51 -68.104,115.01 7.021,12.159 22.001,18.295 44.095,18.295 12.643,0 27.612,-2.06 44.754,-6.054 a 403.406,403.406 0 0 0 44.827,-13.61 c 11.602,65.983 33.8,116.338 65.53,116.338 31.73,0 53.917,-50.448 65.53,-116.338 a 403.406,403.406 0 0 0 44.827,13.61 c 17.142,4.046 32.111,6.054 44.754,6.054 22.094,0 37.064,-6.177 44.095,-18.295 11.037,-19.119 -0.659,-47.843 -33.82,-83.064 a 403.334,403.334 0 0 0 -34.212,-32.018 z m -17.05,-111.12 c 37.064,-8.74 64.172,-7.03 70.803,4.449 6.63,11.479 -5.457,35.828 -31.546,63.543 a 392.678,392.678 0 0 1 -35.138,32.657 c -13.744,-10.83 -28.714,-21.569 -44.61,-31.998 -1.102,-18.614 -2.934,-36.971 -5.457,-54.494 A 392.915,392.915 0 0 1 370.127,144.83 Z M 285.21,306.624 q -14.63,8.442 -29.218,15.999 -14.558,-7.547 -29.219,-16 -14.66,-8.452 -28.467,-17.296 a 737.41,737.41 0 0 1 0,-66.6 q 13.817,-8.834 28.467,-17.297 14.65,-8.463 29.27,-16.01 14.558,7.547 29.219,16 14.66,8.452 28.436,17.306 a 737.294,737.294 0 0 1 0,66.601 q -13.837,8.834 -28.488,17.297 z m 27.252,2.934 c -0.968,12.91 -2.285,25.45 -3.943,37.486 -11.243,-4.582 -22.753,-9.71 -34.418,-15.32 q 9.668,-5.21 19.335,-10.79 9.668,-5.58 19.026,-11.376 z m -74.58,22.176 c -11.654,5.611 -23.165,10.728 -34.418,15.32 -1.657,-12.046 -2.975,-24.575 -3.943,-37.486 q 9.43,5.838 19.016,11.377 9.585,5.539 19.345,10.738 z m -56.44,-53.536 c -10.697,-7.29 -20.889,-14.702 -30.495,-22.156 9.606,-7.454 19.798,-14.866 30.495,-22.156 q -0.34,11.089 -0.35,22.156 -0.01,11.068 0.35,22.135 z m 18.08,-75.713 c 0.967,-12.91 2.285,-25.45 3.942,-37.485 a 612.675,612.675 0 0 1 34.439,15.33 q -9.77,5.25 -19.366,10.779 -9.595,5.529 -19.016,11.376 z m 74.58,-22.176 c 11.654,-5.611 23.164,-10.728 34.417,-15.32 a 617.331,617.331 0 0 1 3.943,37.465 q -9.338,-5.765 -19.016,-11.325 -9.677,-5.56 -19.345,-10.769 z m 56.45,53.536 c 10.696,7.29 20.889,14.702 30.494,22.156 -9.605,7.454 -19.798,14.867 -30.495,22.156 q 0.34,-11.088 0.35,-22.156 0.01,-11.068 -0.35,-22.135 z M 216.744,101.59 c 10.955,-36.446 25.996,-59.096 39.257,-59.096 13.26,0 28.292,22.65 39.256,59.096 a 392.863,392.863 0 0 1 10.728,46.875 c -16.472,6.569 -33.254,14.167 -49.922,22.516 -16.988,-8.545 -33.77,-16.143 -50.026,-22.65 a 392.668,392.668 0 0 1 10.707,-46.74 z M 102.641,212.78 C 76.553,185.065 64.466,160.717 71.086,149.237 c 6.62,-11.48 33.758,-13.178 70.801,-4.447 a 392.894,392.894 0 0 1 45.96,14.146 c -2.533,17.502 -4.366,35.93 -5.468,54.565 -15.587,10.296 -30.587,21.044 -44.517,32.009 a 392.863,392.863 0 0 1 -35.22,-32.73 z m 39.257,154.432 c -37.064,8.741 -64.172,7.032 -70.802,-4.447 -6.63,-11.48 5.426,-35.798 31.545,-63.503 a 392.874,392.874 0 0 1 35.231,-32.729 c 13.93,10.965 28.93,21.744 44.518,32.019 1.101,18.635 2.934,37.064 5.466,54.566 a 392.894,392.894 0 0 1 -46,14.094 z m 153.402,43.24 c -10.955,36.446 -25.996,59.096 -39.257,59.096 -13.26,0 -28.292,-22.65 -39.256,-59.096 a 392.668,392.668 0 0 1 -10.708,-46.751 c 16.236,-6.487 32.997,-14.074 49.964,-22.65 16.967,8.534 33.728,16.122 49.964,22.65 a 392.668,392.668 0 0 1 -10.759,46.751 z m 145.68,-47.678 c -6.63,11.48 -33.759,13.188 -70.802,4.448 A 392.905,392.905 0 0 1 324.22,353.076 c 2.532,-17.503 4.365,-35.931 5.466,-54.566 15.588,-10.296 30.588,-21.044 44.518,-32.019 a 392.894,392.894 0 0 1 35.18,32.77 c 26.088,27.705 38.154,52.054 31.545,63.534 z M 232.899,257.524 a 22.876,22.876 0 1 1 22.876,22.876 22.876,22.876 0 0 1 -22.876,-22.876 z"
       fill="#ffffff"
       fill-opacity="1"
       id="path971" />
  </g>
  <g
     inkscape:export-ydpi="8.4889565"
     inkscape:export-xdpi="8.4889565"
     transform="translate(951.6195,-5.9244999)"
     class=""
     id="g1022">
    <path
       d="m 196.27,22.814 c -8.29,0 -14.194,5.093 -17.91,10.163 -3.713,5.07 -6.032,10.492 -6.032,16.814 0,6.323 2.16,11.873 5.668,17.433 3.51,5.56 9.108,11.85 18.275,11.85 h -0.202 l 6.63,0.142 V 201.218 C 150.973,267.087 50.5,395.497 50.5,395.497 l -0.402,0.513 -0.325,0.562 c -5.1,8.808 -10.02,21.052 -10.02,35.635 0,35.53 29.48,64.827 64.827,64.828 h 299.6 c 35.253,0 64.828,-28.916 64.828,-64.828 0,-16.296 -7.106,-28.625 -11.197,-35.652 L 457.477,395.979 306.065,204.692 V 79.21 c 2.597,-0.066 3.062,-0.134 6.336,-0.136 h 0.088 c 9.168,0 14.767,-6.292 18.276,-11.85 1.137,-1.804 2.07,-3.617 2.896,-5.445 l 1.4,-1.397 h -0.814 c 1.352,-3.372 2.186,-6.84 2.186,-10.592 0,-6.32 -2.317,-11.744 -6.032,-16.813 -3.714,-5.07 -9.62,-10.163 -17.912,-10.163 h -116.22 z m 0,18.688 h 116.222 c -0.094,0 1.3,0.423 2.836,2.52 1.536,2.096 2.42,5.492 2.42,5.77 0,0.276 -1.043,4.696 -2.785,7.456 -1.736,2.75 -3.422,3.132 -2.475,3.135 -6.836,0 -12.118,0.197 -14.302,0.285 v -0.207 h -96.948 v 0.03 l -4.865,-0.105 h -0.102 c 0.972,0 -0.727,-0.377 -2.47,-3.137 -1.74,-2.76 -2.784,-7.18 -2.784,-7.457 0,-0.276 0.883,-3.672 2.42,-5.77 1.536,-2.095 2.93,-2.518 2.835,-2.518 z m 25.115,37.646 h 65.996 v 75.07 h -0.044 v 52.497 l 0.045,0.058 v 4.422 L 441.948,406.47 c 3.908,6.738 8.373,15.1 8.373,25.737 0,25.66 -21.09,46.14 -46.138,46.14 h -299.6 c -24.953,-0.002 -46.14,-21.018 -46.14,-46.14 0,-3.557 0.43,-6.963 1.146,-10.184 l 0.055,0.084 c 0.754,-3.474 1.845,-6.648 3.084,-9.513 l -0.174,0.242 c 0.977,-2.32 2.05,-4.496 3.17,-6.465 0.668,-0.854 102.782,-131.362 153.668,-196.155 l 1.995,-2.54 v -1.155 c 0.023,-0.03 0.07,-0.088 0.092,-0.118 v -52.185 h -0.092 v -75.07 z m 18.78,75.07 v 58.618 l -1.99,2.537 C 204.078,258.886 82.596,415.245 81.714,416.38 c -2.38,4.202 -4.48,9.69 -4.48,15.817 0,15.208 12.87,27.98 27.898,27.98 h 298.995 c 15.124,0 27.898,-12.386 27.898,-27.98 0,-6.278 -2.624,-11.274 -5.203,-15.736 L 268.646,213.13 v -58.913 h -28.48 z m -4.048,119.73 c 21.015,0 38.25,17.236 38.25,38.25 0,21.017 -17.235,38.253 -38.25,38.253 -21.015,0 -38.252,-17.236 -38.252,-38.25 0,-21.016 17.237,-38.253 38.252,-38.253 z m 0,18.69 c -10.913,0 -19.562,8.648 -19.562,19.56 0,10.915 8.65,19.564 19.562,19.564 10.914,0 19.563,-8.647 19.563,-19.563 0,-10.914 -8.65,-19.563 -19.563,-19.563 z m -60.293,54.817 c 21.015,0 38.252,17.237 38.252,38.252 0,21.016 -17.237,38.252 -38.252,38.252 -21.015,0 -38.252,-17.238 -38.252,-38.253 0,-21.015 17.237,-38.252 38.252,-38.252 z m 96.623,10.71 c 24.664,0 44.858,20.197 44.858,44.86 0,24.665 -20.195,44.858 -44.858,44.858 -24.663,0 -44.86,-20.194 -44.86,-44.858 0,-24.663 20.197,-44.86 44.86,-44.86 z m -96.623,7.98 c -10.913,0 -19.562,8.65 -19.562,19.562 0,10.914 8.65,19.563 19.562,19.563 10.914,0 19.563,-8.648 19.563,-19.563 0,-10.913 -8.65,-19.562 -19.563,-19.562 z m 96.623,10.71 c -14.562,0 -26.17,11.608 -26.17,26.17 0,14.563 11.608,26.17 26.17,26.17 14.564,0 26.17,-11.605 26.17,-26.17 0,-14.562 -11.607,-26.17 -26.17,-26.17 z"
       fill="#ffffff"
       fill-opacity="1"
       id="path1020" />
  </g>
</svg>
