<?xml version="1.0" encoding="UTF-8" standalone="no"?>
<svg
        xmlns:dc="http://purl.org/dc/elements/1.1/"
        xmlns:cc="http://creativecommons.org/ns#"
        xmlns:rdf="http://www.w3.org/1999/02/22-rdf-syntax-ns#"
        xmlns="http://www.w3.org/2000/svg"
        xmlns:sodipodi="http://sodipodi.sourceforge.net/DTD/sodipodi-0.dtd"
        xmlns:inkscape="http://www.inkscape.org/namespaces/inkscape"
        inkscape:version="1.0 (4035a4fb49, 2020-05-01)"
        sodipodi:docname="button-blue.svg"
        id="svg294"
        version="1.1"
        viewBox="0 0 210 297"
        height="297mm"
        width="210mm">
  <defs
     id="defs288" />
  <sodipodi:namedview
     showguides="false"
     inkscape:window-maximized="0"
     inkscape:window-y="32"
     inkscape:window-x="323"
     inkscape:window-height="1009"
     inkscape:window-width="1274"
     showgrid="false"
     inkscape:document-rotation="0"
     inkscape:current-layer="layer1"
     inkscape:document-units="mm"
     inkscape:cy="364.06834"
     inkscape:cx="381.7424"
     inkscape:zoom="15.839192"
     inkscape:pageshadow="2"
     inkscape:pageopacity="0.0"
     borderopacity="1.0"
     bordercolor="#666666"
     pagecolor="#ffffff"
     id="base" />
  <metadata
     id="metadata291">
    <rdf:RDF>
      <cc:Work
         rdf:about="">
        <dc:format>image/svg+xml</dc:format>
        <dc:type
           rdf:resource="http://purl.org/dc/dcmitype/StillImage" />
      </cc:Work>
    </rdf:RDF>
  </metadata>
  <g
     id="layer1"
     inkscape:groupmode="layer"
     inkscape:label="Layer 1">
    <path
       inkscape:export-ydpi="96"
       inkscape:export-xdpi="96"
       style="stroke-width:0.264583"
       stroke="none"
       fill="#1989b8"
       d="m 108.28923,100.42166 v 0.52917 l -0.51594,-0.0529 q -0.4101,-0.0926 -0.64823,-0.35719 l -0.27781,-0.38364 q -0.14552,-0.330733 -0.14552,-0.793754 v -3.690938 q 0,-0.78052 0.42333,-1.164166 0.23813,-0.277813 0.64823,-0.370417 l 0.51594,-0.05292 v 0.529167 l -0.51594,0.0926 q -0.5424,0.211667 -0.5424,0.965729 v 3.690938 q 0,0.529167 0.26459,0.793751 l 0.27781,0.1852 0.51594,0.0794"
       id="path300" />
    <path
       inkscape:export-ydpi="96"
       inkscape:export-xdpi="96"
       style="stroke-width:0.264583"
       stroke="none"
       fill="#35baf3"
       d="m 108.28923,100.42166 -0.51594,-0.0794 -0.27781,-0.1852 q -0.26459,-0.264587 -0.26459,-0.793754 v -3.690938 q 0,-0.754062 0.5424,-0.965729 l 0.51594,-0.0926 v 2.910417 h -0.52917 v 1.838854 l 0.0132,0.15875 q 0.0662,0.370417 0.51594,0.370417 v 0.529163"
       id="path302" />
    <path
       inkscape:export-ydpi="96"
       inkscape:export-xdpi="96"
       style="stroke-width:0.264583"
       stroke="none"
       fill="#1ea7e1"
       d="m 108.28923,97.524472 v 2.368021 q -0.44979,0 -0.51594,-0.370417 l -0.0132,-0.15875 v -1.838854 h 0.52917"
       id="path304" />
    <path
       inkscape:export-ydpi="96"
       inkscape:export-xdpi="96"
       style="stroke-width:0.264583"
       stroke="none"
       fill="#35baf3"
       d="m 112.49894,94.614055 v 2.910417 h -4.23333 v -2.910417 h 4.23333 m 0,5.278438 v 0.529167 h -4.23333 v -0.529167 h 4.23333"
       id="path306" />
    <path
       inkscape:export-ydpi="96"
       inkscape:export-xdpi="96"
       style="stroke-width:0.264583"
       stroke="none"
       fill="#1ea7e1"
       d="m 112.49894,99.892493 h -4.23333 v -2.368021 h 4.23333 v 2.368021"
       id="path308" />
    <path
       inkscape:export-ydpi="96"
       inkscape:export-xdpi="96"
       style="stroke-width:0.264583"
       stroke="none"
       fill="#1989b8"
       d="m 108.26561,94.614055 v -0.529167 h 4.23333 v 0.529167 h -4.23333 m 4.23333,5.807605 v 0.52917 h -4.23333 v -0.52917 h 4.23333"
       id="path310" />
    <path
       inkscape:export-ydpi="96"
       inkscape:export-xdpi="96"
       style="stroke-width:0.264583"
       stroke="none"
       fill="#1989b8"
       d="m 112.46579,100.42166 0.56885,-0.10583 0.2249,-0.15875 q 0.26458,-0.264587 0.26458,-0.793754 v -3.690938 q 0,-1.058333 -1.05833,-1.058333 v -0.529167 q 0.78052,0 1.17739,0.423334 0.41011,0.383646 0.41011,1.164166 v 3.690938 q 0,0.463021 -0.14552,0.793754 l -0.26459,0.38364 -0.14552,0.13229 q -0.38364,0.27782 -1.03187,0.27782 v -0.52917"
       id="path312" />
    <path
       inkscape:export-ydpi="96"
       inkscape:export-xdpi="96"
       style="stroke-width:0.264583"
       stroke="none"
       fill="#35baf3"
       d="m 112.46579,100.42166 v -0.529167 q 0.52916,0 0.52916,-0.529167 v -1.838854 h -0.52916 v -2.910417 q 1.05833,0 1.05833,1.058333 v 3.690938 q 0,0.529167 -0.26458,0.793754 l -0.2249,0.15875 -0.56885,0.10583"
       id="path314" />
    <path
       inkscape:export-ydpi="96"
       inkscape:export-xdpi="96"
       style="stroke-width:0.264583"
       stroke="none"
       fill="#1ea7e1"
       d="m 112.46579,97.524472 h 0.52916 v 1.838854 q 0,0.529167 -0.52916,0.529167 v -2.368021"
       id="path316" />
    <path
       inkscape:export-filename="D:\Development\Games\KTX\Herschel\raw\ui\button-blue-down.png"
       id="path1165"
       d="m 98.367355,100.42166 v 0.52917 l -0.51594,-0.0529 q -0.4101,-0.0926 -0.64823,-0.35719 l -0.27781,-0.38364 q -0.14552,-0.330733 -0.14552,-0.793754 v -3.690938 q 0,-0.78052 0.42333,-1.164166 0.23813,-0.277813 0.64823,-0.370417 l 0.51594,-0.05292 v 0.529167 l -0.51594,0.0926 q -0.5424,0.211667 -0.5424,0.965729 v 3.690938 q 0,0.529167 0.26459,0.793751 l 0.27781,0.1852 0.51594,0.0794"
       fill="#1989b8"
       stroke="none"
       style="stroke-width:0.264583;fill:#125f80;fill-opacity:1"
       inkscape:export-xdpi="96"
       inkscape:export-ydpi="96" />
    <path
       inkscape:export-filename="D:\Development\Games\KTX\Herschel\raw\ui\button-blue-down.png"
       id="path1167"
       d="m 98.367355,100.42166 -0.51594,-0.0794 -0.27781,-0.1852 q -0.26459,-0.264587 -0.26459,-0.793754 v -3.690938 q 0,-0.754062 0.5424,-0.965729 l 0.51594,-0.0926 v 2.910417 h -0.52917 v 1.838854 l 0.0132,0.15875 q 0.0662,0.370417 0.51594,0.370417 v 0.529163"
       fill="#35baf3"
       stroke="none"
       style="stroke-width:0.264583"
       inkscape:export-xdpi="96"
       inkscape:export-ydpi="96" />
    <path
       inkscape:export-filename="D:\Development\Games\KTX\Herschel\raw\ui\button-blue-down.png"
       id="path1169"
       d="m 98.367355,97.524472 v 2.368021 q -0.44979,0 -0.51594,-0.370417 l -0.0132,-0.15875 v -1.838854 h 0.52917"
       fill="#1ea7e1"
       stroke="none"
       style="stroke-width:0.264583"
       inkscape:export-xdpi="96"
       inkscape:export-ydpi="96" />
    <path
       inkscape:export-filename="D:\Development\Games\KTX\Herschel\raw\ui\button-blue-down.png"
       id="path1171"
       d="m 102.57706,94.614055 v 2.910417 h -4.233325 v -2.910417 h 4.233325 m 0,5.278438 v 0.529167 h -4.233325 v -0.529167 h 4.233325"
       fill="#35baf3"
       stroke="none"
       style="stroke-width:0.264583"
       inkscape:export-xdpi="96"
       inkscape:export-ydpi="96" />
    <path
       inkscape:export-filename="D:\Development\Games\KTX\Herschel\raw\ui\button-blue-down.png"
       id="path1173"
       d="m 102.57706,99.892493 h -4.233325 v -2.368021 h 4.233325 v 2.368021"
       fill="#1ea7e1"
       stroke="none"
       style="stroke-width:0.264583"
       inkscape:export-xdpi="96"
       inkscape:export-ydpi="96" />
    <path
       inkscape:export-filename="D:\Development\Games\KTX\Herschel\raw\ui\button-blue-down.png"
       id="path1175"
       d="m 98.343735,94.614055 v -0.529167 h 4.233325 v 0.529167 h -4.233325 m 4.233325,5.807605 v 0.52917 h -4.233325 v -0.52917 h 4.233325"
       fill="#1989b8"
       stroke="none"
       style="stroke-width:0.264583;fill:#125f80;fill-opacity:1"
       inkscape:export-xdpi="96"
       inkscape:export-ydpi="96" />
    <path
       inkscape:export-filename="D:\Development\Games\KTX\Herschel\raw\ui\button-blue-down.png"
       id="path1177"
       d="m 102.54391,100.42166 0.56885,-0.10583 0.2249,-0.15875 q 0.26458,-0.264587 0.26458,-0.793754 v -3.690938 q 0,-1.058333 -1.05833,-1.058333 v -0.529167 q 0.78052,0 1.17739,0.423334 0.41011,0.383646 0.41011,1.164166 v 3.690938 q 0,0.463021 -0.14552,0.793754 l -0.26459,0.38364 -0.14552,0.13229 q -0.38364,0.27782 -1.03187,0.27782 v -0.52917"
       fill="#1989b8"
       stroke="none"
       style="stroke-width:0.264583;fill:#125f80;fill-opacity:1"
       inkscape:export-xdpi="96"
       inkscape:export-ydpi="96" />
    <path
       inkscape:export-filename="D:\Development\Games\KTX\Herschel\raw\ui\button-blue-down.png"
       id="path1179"
       d="m 102.54391,100.42166 v -0.529167 q 0.52916,0 0.52916,-0.529167 v -1.838854 h -0.52916 v -2.910417 q 1.05833,0 1.05833,1.058333 v 3.690938 q 0,0.529167 -0.26458,0.793754 l -0.2249,0.15875 -0.56885,0.10583"
       fill="#35baf3"
       stroke="none"
       style="stroke-width:0.264583"
       inkscape:export-xdpi="96"
       inkscape:export-ydpi="96" />
    <path
       inkscape:export-filename="D:\Development\Games\KTX\Herschel\raw\ui\button-blue-down.png"
       id="path1181"
       d="m 102.54391,97.524472 h 0.52916 v 1.838854 q 0,0.529167 -0.52916,0.529167 v -2.368021"
       fill="#1ea7e1"
       stroke="none"
       style="stroke-width:0.264583"
       inkscape:export-xdpi="96"
       inkscape:export-ydpi="96" />
  </g>
</svg>
