<?xml version="1.0" encoding="UTF-8" standalone="no"?>
<svg
        xmlns:dc="http://purl.org/dc/elements/1.1/"
        xmlns:cc="http://creativecommons.org/ns#"
        xmlns:rdf="http://www.w3.org/1999/02/22-rdf-syntax-ns#"
        xmlns="http://www.w3.org/2000/svg"
        xmlns:sodipodi="http://sodipodi.sourceforge.net/DTD/sodipodi-0.dtd"
        xmlns:inkscape="http://www.inkscape.org/namespaces/inkscape"
        width="210mm"
        height="297mm"
        viewBox="0 0 210 297"
        version="1.1"
        id="svg844"
        sodipodi:docname="dialog-panel-2.svg"
        inkscape:version="1.0 (4035a4fb49, 2020-05-01)">
  <defs
     id="defs838" />
  <sodipodi:namedview
     id="base"
     pagecolor="#ffffff"
     bordercolor="#666666"
     borderopacity="1.0"
     inkscape:pageopacity="0.0"
     inkscape:pageshadow="2"
     inkscape:zoom="4"
     inkscape:cx="428.01245"
     inkscape:cy="439.85759"
     inkscape:document-units="mm"
     inkscape:current-layer="g793"
     inkscape:document-rotation="0"
     showgrid="false"
     showguides="true"
     inkscape:window-width="1857"
     inkscape:window-height="1057"
     inkscape:window-x="55"
     inkscape:window-y="-8"
     inkscape:window-maximized="1" />
  <metadata
     id="metadata841">
    <rdf:RDF>
      <cc:Work
         rdf:about="">
        <dc:format>image/svg+xml</dc:format>
        <dc:type
           rdf:resource="http://purl.org/dc/dcmitype/StillImage" />
      </cc:Work>
    </rdf:RDF>
  </metadata>
  <g
     inkscape:label="Layer 1"
     inkscape:groupmode="layer"
     id="layer1">
    <g
       id="g793"
       transform="matrix(0.26458333,0,0,0.26458333,-87.312497,87.388096)"
       inkscape:export-xdpi="96"
       inkscape:export-ydpi="96"
       inkscape:export-filename="D:\Development\Games\KTX\Herschel\raw\ui\panel-pale.png">
      <path
         sodipodi:nodetypes="ccssscscsssssssccsscssssscsssssccsc"
         id="path498"
         d="M 812.9,66.772971 H 802.54975 L 786.2,50.6 C 785.79783,50.20218 785.31667,50 784.75,50 h -51 c -0.56667,0 -1.03333,0.2 -1.4,0.6 -0.4,0.366667 -0.6,0.833333 -0.6,1.4 v 14.772971 h -4.7 c -3.36667,0 -5.05,1.683333 -5.05,5.05 V 152.95 c 0,3.36667 1.68333,5.05 5.05,5.05 h 85.85 c 3.4,0 5.1,-1.68333 5.1,-5.05 V 71.822971 c 0,-3.366667 -1.7,-5.05 -5.1,-5.05 m 5.25,-0.15 c 1.23333,1.133333 1.85,2.866667 1.85,5.2 V 152.95 c 0,2.33333 -0.61667,4.06667 -1.85,5.2 -1.13333,1.23333 -2.88333,1.85 -5.25,1.85 h -85.85 c -4.7,0 -7.05,-2.35 -7.05,-7.05 V 71.822971 c 0,-4.7 2.35,-7.05 7.05,-7.05 h 2.7 V 52 c 0,-1.1 0.38333,-2.033333 1.15,-2.8 l 0.05,-0.05 c 0.76667,-0.766667 1.7,-1.15 2.8,-1.15 h 51 c 1.1,0 2.05,0.383333 2.85,1.15 l 15.79975,15.622971 H 812.9 c 2.36667,0 4.11667,0.616667 5.25,1.85"
         fill-opacity="0.8"
         fill="#8ac2d4"
         stroke="none" />
      <path
         sodipodi:nodetypes="cssssssscscssscccsccccssssssc"
         id="path500"
         d="m 812.9,66.507806 c 3.4,0 5.1,1.683333 5.1,5.05 V 152.95 c 0,3.36667 -1.7,5.05 -5.1,5.05 h -85.85 c -3.36667,0 -5.05,-1.68333 -5.05,-5.05 V 71.557806 c 0,-3.366667 1.68333,-5.05 5.05,-5.05 h 4.7 V 52 c 0,-0.566667 0.2,-1.033333 0.6,-1.4 0.36667,-0.4 0.83333,-0.6 1.4,-0.6 h 51 c 0.56667,0 1.05,0.2 1.45,0.6 l 16.12119,15.907806 H 812.9 m 3.1,5.05 c 0,-2.033334 -1.03333,-3.05 -3.1,-3.05 H 801.47119 L 784.75,52 h -51 v 16.507806 h -6.7 c -2.03333,0 -3.05,1.016666 -3.05,3.05 V 152.95 c 0,2.03333 1.01667,3.05 3.05,3.05 h 85.85 c 2.06667,0 3.1,-1.01667 3.1,-3.05 V 71.557806"
         fill-opacity="0.8"
         fill="#bde7f5"
         stroke="none" />
      <path
         sodipodi:nodetypes="cssssssccccsc"
         id="path502"
         d="M 816,71.292641 V 152.95 c 0,2.03333 -1.03333,3.05 -3.1,3.05 h -85.85 c -2.03333,0 -3.05,-1.01667 -3.05,-3.05 V 71.292641 c 0,-2.033334 1.01667,-3.05 3.05,-3.05 h 6.7 V 52 h 51 l 16.59619,16.242641 H 812.9 c 2.06667,0 3.1,1.016666 3.1,3.05"
         fill-opacity="0.301961"
         fill="#aae9ff"
         stroke="none" />
    </g>
    <text
       xml:space="preserve"
       style="font-style:normal;font-weight:normal;font-size:7.76111px;line-height:1.25;font-family:sans-serif;fill:#000000;fill-opacity:1;stroke:none;stroke-width:0.264583"
       x="106.89167"
       y="107.2224"
       id="text930"><tspan
         sodipodi:role="line"
         id="tspan928"
         x="106.89167"
         y="107.2224"
         style="font-style:normal;font-variant:normal;font-weight:800;font-stretch:normal;font-size:7.76111px;font-family:Oxanium;-inkscape-font-specification:'Oxanium Ultra-Bold';stroke-width:0.264583">Planet 1</tspan></text>
  </g>
</svg>
